<svg width="44" height="49" viewBox="0 0 44 49" fill="none" xmlns="http://www.w3.org/2000/svg">
<g clip-path="url(#clip0_1895_3)">
<path d="M21.6614 24.2307C20.3743 22.5085 18.7838 20.4599 16.8602 18.0068C16.176 17.1337 15.4561 16.2165 14.7422 15.2973V19.6168C14.7561 19.6348 14.768 19.6509 14.7819 19.6689C16.3822 21.7115 18.3733 24.2527 20.0312 26.4995C20.4993 25.8187 21.0486 25.0597 21.6614 24.2327" fill="#171616"/>
<path d="M22.8189 23.722V23.734C21.867 24.9976 21.0777 26.085 20.4272 27.0362C20.4272 27.0362 20.4292 27.0402 20.4312 27.0422C18.9775 29.2089 18.2695 30.6868 18.2695 31.7221C18.2695 33.8588 19.9909 35.597 22.1069 35.597C24.2229 35.597 25.9423 33.8588 25.9423 31.7221C25.9423 30.823 25.3335 29.5253 24.0524 27.5889C23.4178 28.468 22.8605 29.279 22.4321 29.9559C22.9359 30.7629 23.2532 31.3857 23.2928 31.7201C23.2928 32.381 22.7594 32.9176 22.1069 32.9176C21.4545 32.9176 20.921 32.379 20.921 31.7241C20.9448 31.2916 21.3771 30.4545 22.0653 29.3772C22.5075 28.6823 23.0628 27.8813 23.6795 27.0262C25.0856 25.0777 26.8327 22.8349 28.4212 20.8203H28.4252C28.7901 20.3577 29.1431 19.9112 29.4862 19.4786V15.1892C28.8754 15.9642 28.2646 16.7372 27.6795 17.4741C25.7539 19.9052 24.1396 21.9638 22.8169 23.72" fill="#171616"/>
<path d="M41.2278 15.9061V13.2307C39.7186 13.2307 38.1361 11.7769 37.3032 10.4252L37.206 10.289C37.206 10.289 37.202 10.283 37.2 10.281C36.7737 10.9659 36.2422 11.7429 35.5977 12.626C36.857 14.2781 38.8936 15.9081 41.2278 15.9081" fill="#171616"/>
<path d="M33.3248 5.80134C33.5925 5.62912 33.9257 5.56103 34.2588 5.64113C34.5821 5.71923 34.8637 5.9295 35.0343 6.21786C35.1929 6.48821 35.2385 6.7986 35.1632 7.09097C35.1156 7.2712 35.0105 7.5115 34.8538 7.79786C34.5405 8.3786 34.0248 9.15959 33.3843 10.0587V14.5164C34.0665 13.6292 34.6773 12.8182 35.2088 12.0813C35.8414 11.2062 36.3669 10.4352 36.7735 9.76635C36.8905 9.57611 36.9956 9.39388 37.0908 9.21966C37.1027 9.19964 37.1126 9.17961 37.1245 9.15758C37.2197 8.98537 37.305 8.81916 37.3803 8.66296C37.3803 8.66096 37.3823 8.65695 37.3843 8.65495C37.4537 8.51277 37.5092 8.3806 37.5608 8.25044C37.5747 8.21639 37.5866 8.18235 37.6004 8.15031C37.65 8.01814 37.6917 7.89198 37.7234 7.77383C37.9832 6.77857 37.8364 5.73726 37.3089 4.84413C36.7755 3.94299 35.889 3.28415 34.8776 3.03784C33.3803 2.67538 31.8751 3.25011 30.9648 4.38555C31.8136 4.81409 32.599 5.29069 33.3228 5.79933" fill="#171616"/>
<path d="M10.9068 5.80134C10.6391 5.62912 10.3059 5.56103 9.97273 5.64113C9.64947 5.71923 9.36787 5.9295 9.19732 6.21786C9.03867 6.48821 8.99306 6.7986 9.06841 7.09097C9.11601 7.2712 9.22112 7.5115 9.37778 7.79786C9.69112 8.3786 10.2067 9.15959 10.8473 10.0587V14.5164C10.1651 13.6292 9.55428 12.8182 9.0228 12.0813C8.39018 11.2062 7.86465 10.4352 7.4581 9.76635C7.3411 9.57611 7.23599 9.39388 7.1408 9.21966C7.1289 9.19964 7.11898 9.17961 7.10709 9.15758C7.01189 8.98537 6.92662 8.81916 6.85126 8.66296C6.85126 8.66096 6.84928 8.65695 6.84729 8.65495C6.77788 8.51277 6.72236 8.3806 6.67079 8.25044C6.65691 8.21639 6.64501 8.18235 6.63113 8.15031C6.58155 8.01814 6.53991 7.89198 6.50818 7.77383C6.24838 6.77857 6.39514 5.73726 6.92265 4.84413C7.45612 3.94299 8.34258 3.28415 9.35399 3.03784C10.8513 2.67538 12.3565 3.25011 13.2667 4.38555C12.4179 4.81409 11.6326 5.29069 10.9088 5.79933" fill="#171616"/>
<path d="M11.4658 39.6822V40.4151C11.4658 42.0652 10.1371 43.4089 8.501 43.4089C6.8649 43.4089 5.5362 42.0672 5.5362 40.4151H2.88672C2.88672 43.5411 5.40531 46.0843 8.501 46.0843C11.3746 46.0843 13.7484 43.8915 14.0736 41.076C13.1673 40.6755 12.2967 40.2089 11.4658 39.6842" fill="#171616"/>
<path d="M11.4688 10.9719V17.1937V34.802C12.2818 35.5209 13.1703 36.1597 14.1162 36.7024V25.4101V10.4592H14.1182V8.39261C13.1723 8.9373 12.2838 9.5721 11.4688 10.291V10.9719Z" fill="#171616"/>
<path d="M31.2558 35.8914C31.6842 35.577 32.1839 35.2186 32.765 34.9042V18.6416H32.761V10.3751C31.9955 9.67824 31.119 9.00338 30.1135 8.40863V14.3962C30.1135 14.3962 30.1036 14.4102 30.0977 14.4162H30.1155V19.8091V36.6363C30.2385 36.5663 30.3634 36.5022 30.4824 36.4301C30.7204 36.2859 30.994 36.0857 31.2558 35.8934" fill="#171616"/>
<path d="M41.2974 39.7403H41.2816C40.9464 36.9347 38.5805 34.752 35.7129 34.75H35.7109C35.4967 34.75 35.2925 34.766 35.0942 34.788C35.0664 34.792 35.0367 34.794 35.0089 34.798C34.8185 34.8241 34.6341 34.8581 34.4556 34.9001C34.4298 34.9062 34.404 34.9162 34.3783 34.9222C34.2414 34.9582 34.1085 35.0003 33.9777 35.0463C33.9122 35.0684 33.8468 35.0924 33.7853 35.1164C33.698 35.1505 33.6167 35.1865 33.5334 35.2246C33.3867 35.2906 33.2419 35.3607 33.1031 35.4348C33.0872 35.4428 33.0714 35.4508 33.0575 35.4589C32.9583 35.5129 32.8592 35.569 32.764 35.6271C32.3475 35.8754 31.9687 36.1477 31.6217 36.402C31.3321 36.6123 31.0605 36.8126 30.8026 36.9688C30.5766 37.1049 30.3445 37.2311 30.1145 37.3573V37.3713C30.0272 37.4193 29.938 37.4594 29.8507 37.5054C29.7853 37.5395 29.7218 37.5715 29.6564 37.6036C29.3926 37.7377 29.1249 37.8659 28.8552 37.9861C28.764 38.0281 28.6708 38.0662 28.5776 38.1062C28.3336 38.2103 28.0897 38.3065 27.8418 38.3986C27.7268 38.4406 27.6118 38.4827 27.4987 38.5227C27.2727 38.6008 27.0426 38.6729 26.8145 38.743C26.6817 38.7831 26.5468 38.8231 26.4139 38.8612C26.2037 38.9192 25.9915 38.9693 25.7793 39.0174C25.6266 39.0534 25.4739 39.0895 25.3212 39.1195C25.1309 39.1575 24.9385 39.1896 24.7461 39.2216C24.5716 39.2497 24.3971 39.2817 24.2226 39.3057C24.0679 39.3257 23.9112 39.3378 23.7546 39.3538C23.5424 39.3758 23.3321 39.4018 23.118 39.4159H23.114C22.763 39.4379 22.412 39.4539 22.0609 39.4539C14.4457 39.4539 8.00443 34.2914 5.97964 27.2525H5.99154C5.56119 25.7546 5.32917 24.1746 5.32917 22.5385C5.32917 18.8118 6.53095 15.3614 8.56169 12.5639C7.93502 11.6868 7.41345 10.9158 6.99897 10.2349C4.29992 13.6012 2.67969 17.8806 2.67969 22.5385C2.67969 29.3872 6.17994 35.4268 11.467 38.9292C12.3217 39.496 13.2241 39.9946 14.1641 40.4191C14.4338 40.5413 14.7075 40.6574 14.9831 40.7676C15.0148 40.7796 15.0466 40.7936 15.0803 40.8056C15.3758 40.9218 15.6772 41.0319 15.9806 41.132C15.9846 41.132 15.9886 41.134 15.9905 41.136C16.6152 41.3443 17.2518 41.5205 17.9023 41.6647C17.9598 41.6767 18.0173 41.6887 18.0748 41.7008C18.3267 41.7548 18.5785 41.8029 18.8344 41.8469C18.9296 41.863 19.0267 41.879 19.1219 41.893C19.3421 41.927 19.5642 41.9571 19.7863 41.9831C19.8973 41.9971 20.0084 42.0091 20.1195 42.0212C20.3336 42.0432 20.5498 42.0592 20.766 42.0732C20.879 42.0812 20.992 42.0912 21.1071 42.0973C21.3649 42.1093 21.6247 42.1153 21.8844 42.1193C21.9459 42.1193 22.0054 42.1233 22.0649 42.1233C22.4814 42.1233 22.8959 42.1073 23.3103 42.0792C23.3857 42.0732 23.461 42.0672 23.5384 42.0612C23.8835 42.0352 24.2285 41.9991 24.5716 41.9531C24.649 41.9431 24.7263 41.933 24.8036 41.921C25.1983 41.863 25.5909 41.7969 25.9796 41.7148C25.9876 41.7128 25.9955 41.7108 26.0034 41.7088C26.8542 41.5285 27.6951 41.2902 28.52 40.9959C28.5419 40.9879 28.5617 40.9798 28.5835 40.9738C29.823 40.5273 31.0248 39.9525 32.171 39.2557C32.524 39.0414 32.8572 38.7971 33.1785 38.5628C34.0193 37.95 34.7432 37.4193 35.7129 37.4173C35.7189 37.4173 35.7248 37.4173 35.7288 37.4173C35.8735 37.4173 36.0143 37.4314 36.1512 37.4534C36.175 37.4574 36.1968 37.4594 36.2206 37.4634C37.6187 37.7037 38.6876 38.9333 38.6896 40.4111C38.6896 42.0612 37.3589 43.4029 35.7248 43.4029C34.0907 43.4029 32.76 42.0612 32.76 40.4091V39.6181C32.6708 39.6782 32.5835 39.7383 32.4903 39.7943C31.7308 40.2549 30.9454 40.6614 30.1423 41.0179C30.4457 43.8575 32.8314 46.0763 35.7228 46.0763C38.8165 46.0763 41.3351 43.5351 41.3371 40.4111C41.3371 40.1788 41.3193 39.9545 41.2935 39.7343" fill="#171616"/>
<path d="M7.41797 9.71829C7.85823 10.4552 8.44127 11.3203 9.1552 12.3116C9.21271 12.3917 9.26824 12.4678 9.32575 12.5499C9.40111 12.654 9.48044 12.7601 9.55778 12.8663C9.62521 12.9584 9.69263 13.0505 9.76403 13.1466C9.83542 13.2448 9.9088 13.3429 9.98416 13.443C10.0674 13.5551 10.1507 13.6673 10.236 13.7794C10.3034 13.8695 10.3729 13.9617 10.4423 14.0538C10.5394 14.1819 10.6366 14.3121 10.7358 14.4423C10.7715 14.4903 10.8091 14.5384 10.8448 14.5865V10.0928C10.8329 10.0767 10.8191 10.0587 10.8072 10.0407C10.1686 9.12755 9.6609 8.34455 9.35748 7.76382C9.35748 7.76382 9.35748 7.76382 9.3555 7.76382C9.3555 7.76182 9.3555 7.75982 9.35352 7.75781C8.66338 8.36458 8.01688 9.01741 7.41797 9.71429" fill="#171616"/>
<path d="M32.977 6.30998C32.1659 5.75728 31.3131 5.26466 30.4207 4.83612C30.2184 4.74 30.0142 4.64588 29.8079 4.55776C29.7207 4.51972 29.6354 4.47967 29.5481 4.44362C29.2784 4.32948 29.0048 4.22334 28.7311 4.12322C28.626 4.08517 28.5209 4.04912 28.4158 4.01308C28.2135 3.94299 28.0092 3.8769 27.805 3.81282C27.6999 3.78078 27.5928 3.74674 27.4877 3.7147C27.208 3.63259 26.9244 3.5585 26.6389 3.48841C26.5298 3.46238 26.4187 3.44035 26.3077 3.41432C26.1054 3.36826 25.9011 3.32821 25.6969 3.28816C25.5719 3.26413 25.447 3.2401 25.3221 3.22007C25.0365 3.17201 24.7509 3.12996 24.4634 3.09391C24.3384 3.07789 24.2135 3.06788 24.0866 3.05586C23.8962 3.03584 23.7058 3.01982 23.5154 3.0058C23.3607 2.99579 23.2061 2.98578 23.0514 2.97777C22.8749 2.96976 22.6944 2.96575 22.5159 2.96175C22.3949 2.95974 22.276 2.95374 22.153 2.95374C22.1371 2.95374 22.1233 2.95374 22.1074 2.95374C22.0915 2.95374 22.0776 2.95374 22.0618 2.95374C21.9408 2.95374 21.8198 2.95974 21.6989 2.96175C21.5204 2.96575 21.3419 2.96976 21.1634 2.97777C21.0087 2.98578 20.854 2.99579 20.6994 3.0058C20.507 3.01982 20.3166 3.03584 20.1282 3.05586C20.0033 3.06788 19.8764 3.07789 19.7514 3.09391C19.4639 3.12796 19.1763 3.17201 18.8927 3.22007C18.7678 3.2401 18.6409 3.26413 18.5159 3.28816C18.3097 3.32621 18.1074 3.36826 17.9051 3.41432C17.7941 3.43835 17.683 3.46238 17.5739 3.48841C17.2884 3.5585 17.0067 3.63259 16.7251 3.7147C16.618 3.74474 16.5129 3.77878 16.4078 3.81282C16.2016 3.8749 15.9993 3.94299 15.797 4.01308C15.6919 4.04912 15.5848 4.08517 15.4817 4.12322C15.206 4.22334 14.9324 4.33148 14.6647 4.44362C14.5774 4.47967 14.4901 4.51972 14.4049 4.55776C14.1986 4.64788 13.9944 4.74 13.7941 4.83612C12.9036 5.26266 12.0489 5.75728 11.2378 6.30998C10.7579 6.6364 10.2998 6.99084 9.85156 7.35931C10.1133 7.89198 10.623 8.68298 11.2834 9.62418C12.158 8.87923 13.1079 8.2184 14.1213 7.66369C14.1332 7.65769 14.1431 7.65168 14.155 7.64567C14.4187 7.50149 14.6865 7.36732 14.9582 7.23716C14.9958 7.21913 15.0335 7.20111 15.0712 7.18309C15.6443 6.91475 16.2353 6.68045 16.8421 6.47819C16.9155 6.45416 16.9909 6.43214 17.0643 6.40811C17.2884 6.33601 17.5144 6.26993 17.7425 6.20986C17.8337 6.18382 17.9249 6.15979 18.0142 6.13776C18.2799 6.07168 18.5457 6.0096 18.8154 5.95553C18.8967 5.93951 18.976 5.9255 19.0573 5.90948C19.3032 5.86342 19.5511 5.82337 19.801 5.78932C19.9358 5.7713 20.0707 5.75528 20.2056 5.74126C20.3761 5.72324 20.5486 5.70522 20.7192 5.6932C20.8699 5.68119 21.0226 5.66917 21.1753 5.66116C21.3359 5.65315 21.4986 5.64915 21.6592 5.64514C21.798 5.64114 21.9349 5.63313 22.0737 5.63313C22.0836 5.63313 22.0935 5.63313 22.1034 5.63313C22.1133 5.63313 22.1233 5.63313 22.1332 5.63313C22.272 5.63313 22.4088 5.64314 22.5476 5.64514C22.7103 5.64915 22.8709 5.65315 23.0315 5.66116C23.1842 5.66917 23.335 5.68119 23.4877 5.6932C23.6602 5.70722 23.8307 5.72324 24.0013 5.74126C24.1361 5.75728 24.271 5.7713 24.4059 5.78932C24.6557 5.82337 24.9036 5.86342 25.1495 5.90948C25.2308 5.9255 25.3121 5.93951 25.3915 5.95553C25.6612 6.0096 25.9289 6.06968 26.1927 6.13776C26.2839 6.15979 26.3751 6.18582 26.4644 6.20986C26.6924 6.27193 26.9185 6.33802 27.1426 6.40811C27.2179 6.43214 27.2913 6.45416 27.3647 6.47819C27.9715 6.68045 28.5625 6.91475 29.1356 7.18309C29.1733 7.20111 29.211 7.21913 29.2487 7.23716C29.5204 7.36732 29.7881 7.50149 30.0519 7.64567C30.0638 7.65168 30.0737 7.65769 30.0856 7.66169C31.099 8.21639 32.0469 8.87723 32.9235 9.62217C33.5838 8.68098 34.0935 7.88798 34.3553 7.35731C33.9071 6.99084 33.447 6.6364 32.9691 6.30798" fill="#171616"/>
<path d="M2.99058 3.02182H41.0074V45.9802H2.99058V3.02182ZM0 49H44V0H0V49Z" fill="#171616"/>
</g>
<defs>
<clipPath id="clip0_1895_3">
<rect width="44" height="49" fill="white"/>
</clipPath>
</defs>
</svg>
