<?xml version="1.0" standalone="no"?>
<!DOCTYPE svg PUBLIC "-//W3C//DTD SVG 20010904//EN"
 "http://www.w3.org/TR/2001/REC-SVG-20010904/DTD/svg10.dtd">
<svg version="1.0" xmlns="http://www.w3.org/2000/svg"
 width="1085.000000pt" height="741.000000pt" viewBox="0 0 1085.000000 741.000000"
 preserveAspectRatio="xMidYMid meet">

<g transform="translate(0.000000,741.000000) scale(0.100000,-0.100000)"
fill="#000000" stroke="none">
<path d="M2343 7343 c-18 -7 -16 -50 3 -57 9 -3 1893 -6 4189 -6 l4173 0 6
-782 c3 -431 8 -1516 11 -2413 3 -896 8 -2144 11 -2772 l7 -1143 -5307 0
-5306 0 0 706 0 705 -27 -3 -28 -3 -3 -710 c-1 -390 0 -720 3 -732 l5 -23
5335 0 c5223 0 5334 0 5340 19 3 10 15 21 27 24 l20 6 -7 1703 c-4 937 -10
2551 -14 3586 -7 1611 -10 1885 -22 1893 -14 9 -8393 12 -8416 2z"/>
<path d="M1369 4279 c-221 -32 -405 -189 -472 -404 -28 -92 -30 -261 -3 -350
58 -194 218 -349 416 -400 95 -25 255 -22 345 5 79 24 139 57 191 102 27 24
32 33 23 44 -17 20 -23 18 -81 -26 -65 -49 -141 -77 -241 -90 -280 -35 -533
132 -602 397 -19 72 -19 212 0 282 46 174 186 320 360 373 51 16 96 22 170 22
124 1 215 -25 309 -88 62 -41 66 -43 81 -26 15 16 13 20 -24 49 -117 93 -299
136 -472 110z"/>
<path d="M3931 4279 c-122 -21 -227 -95 -267 -186 -21 -49 -22 -166 -2 -214
23 -52 82 -107 152 -140 34 -16 131 -47 216 -69 170 -45 222 -65 274 -105 75
-57 99 -178 53 -266 -52 -97 -156 -143 -327 -143 -147 0 -268 39 -355 115 -34
30 -36 31 -50 13 -17 -24 -8 -36 68 -85 193 -125 507 -124 650 1 60 53 91 125
90 211 -1 82 -24 131 -89 187 -54 49 -103 68 -301 121 -170 46 -202 58 -260
100 -63 45 -86 98 -81 182 3 56 9 76 34 111 97 138 357 170 555 66 35 -18 66
-34 69 -35 3 -2 11 6 17 17 11 17 9 22 -25 45 -89 61 -293 97 -421 74z"/>
<path d="M6295 4283 c-230 -32 -410 -176 -487 -389 -29 -82 -37 -255 -14 -344
28 -111 72 -188 155 -271 121 -121 245 -170 431 -170 244 0 422 102 537 307
44 79 63 165 63 281 0 118 -17 191 -68 287 -109 208 -367 333 -617 299z m274
-76 c137 -48 245 -144 306 -271 44 -92 59 -176 52 -279 -21 -294 -242 -497
-542 -499 -199 -2 -357 77 -458 229 -198 298 -76 691 255 817 109 42 272 43
387 3z"/>
<path d="M2290 3888 c0 -311 3 -406 15 -456 39 -164 143 -273 300 -311 28 -7
93 -13 145 -13 213 1 353 93 422 277 21 58 22 75 26 478 l3 417 -25 0 -26 0 0
-372 c0 -392 -6 -456 -48 -551 -65 -146 -230 -222 -429 -197 -178 23 -293 137
-322 320 -6 37 -11 226 -11 433 l0 367 -25 0 -25 0 0 -392z"/>
<path d="M4650 4255 l0 -25 215 0 215 0 0 -560 0 -560 25 0 25 0 0 560 0 560
215 0 215 0 0 25 0 25 -455 0 -455 0 0 -25z"/>
<path d="M7410 3696 l0 -586 25 0 25 0 0 527 0 527 251 -434 c138 -239 258
-442 266 -450 13 -13 16 -13 31 6 9 11 127 213 262 448 l245 427 3 -526 2
-525 32 0 31 0 -6 218 c-4 119 -7 382 -7 585 l0 367 -22 0 c-20 -1 -63 -71
-288 -465 -146 -256 -267 -465 -270 -465 -3 0 -124 208 -270 463 -212 368
-270 463 -288 465 l-22 3 0 -585z"/>
<path d="M9120 3695 l0 -585 25 0 25 0 0 195 0 195 163 0 c89 0 198 3 242 6
l80 6 143 -201 c131 -183 146 -201 173 -201 16 0 29 2 29 5 0 2 -65 96 -145
207 l-146 202 68 31 c158 74 235 228 205 408 -21 123 -83 207 -193 262 -89 45
-161 55 -426 55 l-243 0 0 -585z m601 507 c107 -42 172 -109 200 -204 15 -52
12 -174 -6 -228 -23 -69 -91 -141 -163 -173 -77 -35 -208 -49 -417 -45 l-160
3 -3 338 -2 339 247 -4 c228 -4 253 -6 304 -26z"/>
</g>
</svg>
