<?xml version="1.0" standalone="no"?>
<!DOCTYPE svg PUBLIC "-//W3C//DTD SVG 20010904//EN"
 "http://www.w3.org/TR/2001/REC-SVG-20010904/DTD/svg10.dtd">
<svg version="1.0" xmlns="http://www.w3.org/2000/svg"
 width="2317.000000pt" height="414.000000pt" viewBox="0 0 2317.000000 414.000000"
 preserveAspectRatio="xMidYMid meet">

<g transform="translate(0.000000,414.000000) scale(0.100000,-0.100000)"
fill="#000000" stroke="none">
<path d="M5280 4001 c-5 -11 -311 -760 -680 -1666 -368 -905 -682 -1669 -696
-1698 -82 -163 -248 -287 -456 -342 l-68 -18 0 -48 0 -49 525 0 525 0 0 89 0
88 -86 7 c-108 9 -186 37 -215 77 -19 27 -21 40 -16 102 6 91 35 177 189 552
l123 300 525 3 526 2 187 -496 c103 -273 190 -507 193 -520 l6 -24 -156 0
-156 0 0 -90 0 -90 815 0 815 0 0 90 0 90 -169 0 c-123 0 -171 3 -178 12 -5 7
-79 195 -163 418 -84 223 -194 515 -246 650 -212 559 -957 2527 -966 2553 -10
26 -12 27 -89 27 -67 0 -80 -3 -89 -19z m-86 -1858 c113 -299 206 -545 206
-548 0 -3 -200 -5 -445 -5 -245 0 -445 3 -445 6 0 7 449 1105 458 1118 3 5 9
1 12 -10 4 -10 100 -263 214 -561z"/>
<path d="M17615 3983 c-16 -37 -707 -1736 -1117 -2743 -338 -833 -342 -839
-563 -871 -33 -5 -95 -9 -137 -9 l-78 0 0 -90 0 -90 520 0 520 0 0 89 0 88
-74 7 c-104 9 -167 30 -201 66 -27 29 -30 37 -29 98 1 98 39 204 286 800 l30
72 525 -2 525 -3 193 -512 c106 -282 190 -515 187 -518 -3 -3 -72 -5 -154 -5
l-148 0 0 -90 0 -90 810 0 810 0 0 90 0 90 -172 2 -172 3 -146 385 c-168 442
-330 871 -525 1385 -75 198 -160 423 -189 500 -56 146 -78 204 -355 935 l-168
445 -81 3 -81 3 -16 -38z m-81 -1830 c113 -298 206 -547 206 -553 0 -7 -146
-10 -445 -10 l-445 0 19 48 c10 26 112 274 226 552 114 278 210 511 213 519 4
11 6 11 12 0 4 -8 101 -258 214 -556z"/>
<path d="M1735 3994 c-359 -56 -667 -219 -954 -505 -250 -250 -416 -536 -500
-860 -91 -353 -89 -777 5 -1129 161 -598 623 -1105 1164 -1278 339 -108 756
-103 1110 14 216 72 530 248 648 362 102 99 172 247 192 403 5 46 10 157 10
246 l0 163 145 0 145 0 0 95 0 95 -770 0 -770 0 0 -95 0 -95 161 0 162 0 -6
-312 c-6 -350 -16 -436 -56 -523 -75 -160 -217 -226 -487 -226 -361 0 -559
138 -634 442 -29 114 -39 424 -39 1179 -1 596 10 1042 30 1230 23 220 73 345
178 451 75 75 153 117 276 150 108 29 340 32 465 5 328 -69 564 -246 748 -561
35 -60 106 -211 125 -267 6 -16 21 -18 127 -18 l120 0 0 480 0 480 -93 0 -93
0 -62 -72 c-34 -40 -84 -97 -110 -126 l-48 -54 -80 57 c-208 149 -412 235
-644 270 -118 18 -345 18 -465 -1z"/>
<path d="M7480 3445 l0 -495 114 0 113 0 13 77 c36 226 120 415 233 524 79 77
225 139 424 180 101 21 138 23 591 27 265 2 482 1 482 -3 0 -6 -28 -52 -1224
-1943 l-886 -1403 0 -114 0 -115 1609 0 1608 0 6 163 c4 89 10 323 13 519 l7
358 -109 0 -109 0 -23 -94 c-46 -193 -120 -326 -248 -445 -90 -84 -181 -146
-295 -201 -191 -91 -352 -111 -963 -117 -414 -5 -458 -4 -453 10 3 9 488 777
1076 1706 l1071 1691 0 85 0 85 -1525 0 -1525 0 0 -495z"/>
<path d="M11510 3850 l0 -90 170 0 170 0 -2 -1612 c-3 -1521 -4 -1616 -21
-1658 -35 -87 -82 -112 -236 -126 l-81 -7 0 -88 0 -89 525 0 525 0 0 88 0 89
-142 6 c-143 6 -243 25 -286 53 -31 20 -58 83 -71 164 -7 44 -11 550 -10 1535
l1 1470 28 -85 c28 -84 676 -2101 933 -2907 l132 -413 70 0 71 0 533 1668
c294 917 538 1674 542 1682 5 8 7 -700 6 -1575 l-2 -1590 -182 -3 -183 -2 0
-90 0 -90 785 0 785 0 0 90 0 89 -137 3 -138 3 -3 1698 -2 1697 140 0 140 0 0
90 0 90 -644 0 -644 0 -11 -32 c-12 -39 -561 -1744 -634 -1970 -28 -87 -54
-155 -58 -150 -4 4 -14 30 -22 57 -8 28 -74 235 -147 460 -72 226 -220 686
-328 1023 l-196 612 -688 0 -688 0 0 -90z"/>
<path d="M19710 3851 l0 -88 95 -6 c118 -7 162 -26 190 -82 20 -39 20 -63 23
-1530 3 -1548 1 -1618 -38 -1696 -25 -48 -93 -75 -214 -85 l-86 -7 0 -88 0
-89 450 0 450 0 0 89 0 88 -94 7 c-108 7 -185 28 -210 55 -10 10 -25 41 -34
68 -15 44 -17 171 -20 1493 -2 1153 0 1442 10 1432 7 -7 505 -747 1108 -1645
l1095 -1632 108 -3 107 -3 0 1710 c0 1182 3 1725 11 1760 22 105 77 144 219
157 l70 7 0 88 0 89 -415 0 -415 0 0 -89 0 -88 78 -6 c128 -10 189 -40 215
-106 34 -84 38 -192 35 -1059 l-3 -854 -739 1101 -739 1101 -629 0 -628 0 0
-89z"/>
</g>
</svg>
