<svg xmlns="http://www.w3.org/2000/svg" fill="none" viewBox="0 0 344 23" height="23" width="344">
<path style="fill:black;fill-opacity:1;" fill="black" d="M330.494 5.87046V5.80694C330.494 3.49051 332.554 1.61766 335.674 1.61766C338.007 1.61766 340.006 2.31642 342.005 4.12575L343.005 2.82461C340.854 1.01528 338.825 0.125952 335.735 0.125952C331.798 0.125952 328.919 2.6658 328.919 5.96575V6.02927C328.919 9.39383 330.98 11.2021 336.068 12.2809C340.885 13.2962 342.065 14.6608 342.065 17.009V17.0725C342.065 19.6113 339.885 21.4841 336.704 21.4841C333.584 21.4841 331.433 20.4371 329.101 18.1831L328.071 19.4207C330.616 21.8007 333.221 22.9747 336.613 22.9747C340.703 22.9747 343.642 20.4995 343.642 16.9137V16.8502C343.642 13.6138 341.581 11.7727 336.674 10.7256C331.647 9.64683 330.494 8.21864 330.494 5.87046ZM321.626 11.4879V11.4244C321.626 5.1717 317.021 0.381142 310.356 0.381142H303.3V22.5947H310.356C317.021 22.5947 321.626 17.7395 321.626 11.4879ZM319.991 11.5514C319.991 16.8502 316.264 21.0712 310.356 21.0712H304.875V1.90352H310.356C316.263 1.90352 319.99 6.21874 319.99 11.4868V11.5514H319.991ZM296.023 11.4879C296.052 11.4551 296.052 11.4551 296.023 11.4244C296.023 5.36227 291.812 0 285.39 0C278.968 0 274.696 5.42579 274.696 11.4879V11.5514C274.696 17.6125 278.908 22.9747 285.329 22.9747C291.751 22.9747 296.023 17.549 296.023 11.4879ZM294.387 11.5514C294.387 17.0408 290.631 21.4841 285.389 21.4841C280.15 21.4841 276.333 16.9772 276.333 11.4879V11.4244C276.333 5.93398 280.088 1.49061 285.329 1.49061C290.57 1.49061 294.387 5.99751 294.387 11.4879V11.5514ZM268.169 11.512C268.2 11.4803 268.2 11.4803 268.169 11.4485C268.169 5.38746 263.958 0.0251904 257.536 0.0251904C251.115 0.0251904 246.842 5.44989 246.842 11.5109V11.5744C246.842 17.6366 251.054 22.9988 257.475 22.9988C263.897 22.9988 268.169 17.5741 268.169 11.512ZM266.533 11.5755C266.533 17.066 262.778 21.5093 257.536 21.5093C252.296 21.5093 248.479 17.0024 248.479 11.512V11.4485C248.479 5.95917 252.234 1.51581 257.476 1.51581C262.717 1.51581 266.533 6.0227 266.533 11.512V11.5755ZM232.65 22.5936L241.904 0.405237H240.24L231.986 20.6583L227.188 8.85169L226.357 10.8483L231.257 22.5947L232.65 22.5936ZM219.756 22.5936L229.01 0.405237H227.345L219.09 20.6583L210.864 0.405237H209.109L218.362 22.5947L219.756 22.5936ZM200.372 22.5903L196.105 18.4679L196.129 18.3288C196.564 17.0747 196.656 15.7024 196.396 14.4177L196.344 14.0858H194.837L194.952 14.7024C195.11 15.4483 195.107 16.296 194.943 17.0988L194.905 17.2916L187.184 9.95569C185.375 8.22521 184.973 5.96246 186.107 3.90123C186.507 3.18118 187.082 2.58306 187.774 2.16715C188.466 1.75124 189.253 1.53224 190.052 1.53223C190.854 1.53778 191.64 1.76335 192.332 2.18609C193.21 2.7205 193.896 3.54023 194.281 4.51893C194.668 5.49764 194.732 6.58099 194.467 7.60203L194.311 8.22412H195.739L195.795 7.96126C196.513 5.24508 195.377 2.30328 193.031 0.88495C192.133 0.341116 191.111 0.0539312 190.072 0.0525713C189.021 0.0551534 187.99 0.345135 187.081 0.893311C186.173 1.44148 185.421 2.2285 184.898 3.17509C183.597 5.53313 183.865 8.21317 185.616 10.3478L185.687 10.4354L185.601 10.5088C183.295 12.4714 182.496 15.8448 183.658 18.7121C183.999 19.5613 184.498 20.3318 185.128 20.9791C185.758 21.6264 186.505 22.1375 187.326 22.483C188.137 22.8258 188.986 22.9999 189.848 22.9999C190.746 23.004 191.637 22.8177 192.464 22.4523C193.655 21.923 194.67 21.0435 195.385 19.9223L195.453 19.8391L198.294 22.5903H200.372ZM194.34 18.7285L194.294 18.8074C193.736 19.7863 192.893 20.5573 191.888 21.011C191.243 21.2993 190.547 21.4475 189.845 21.4469C188.813 21.4469 187.803 21.1296 186.943 20.535C186.084 19.9404 185.414 19.095 185.016 18.1053C184.559 16.9796 184.477 15.7278 184.781 14.5478C185.087 13.3679 185.762 12.3273 186.701 11.5909L186.771 11.535L194.34 18.7285ZM168.601 22.5903H170.359L161.049 0.405237H159.655L150.33 22.5903H151.997L155.287 14.6893H165.337L168.601 22.5903ZM164.667 13.0399H155.961L160.322 2.34161L164.667 13.0388V13.0399ZM140.107 22.5903H141.682V0.405237H140.107V22.5903ZM130.419 22.5903L122.624 12.5098C126.945 12.3608 129.765 9.81002 129.797 6.20013C129.763 2.48509 126.774 0.405237 122.227 0.405237H115.982V22.5903H117.557V12.5076L120.761 12.5185L128.441 22.5892L130.419 22.5903ZM128.221 6.46517C128.221 6.43889 128.224 6.41479 128.224 6.38851V6.53965C128.224 6.51446 128.221 6.49036 128.221 6.46517ZM122.135 10.9841H117.564V1.94514H122.135C125.927 1.94514 128.155 3.27366 128.218 6.20013C128.219 6.15741 128.224 6.11689 128.224 6.07417V6.32498C128.224 6.28227 128.219 6.24284 128.218 6.20013C128.154 9.14193 125.929 10.9841 122.135 10.9841ZM129.799 6.16727L129.797 6.20013V6.21984L129.799 6.16727ZM129.799 6.26036L129.797 6.21984C129.797 6.30855 129.795 6.40822 129.794 6.44874C129.796 6.40712 129.799 6.3677 129.799 6.32498V6.26036ZM107.175 11.512C107.206 11.4803 107.206 11.4803 107.175 11.4485C107.175 5.38746 102.965 0.0251904 96.5431 0.0251904C90.1215 0.0251904 85.8506 5.44989 85.8506 11.5109V11.5744C85.8495 17.6377 90.0603 22.9999 96.4818 22.9999C102.903 22.9999 107.175 17.5741 107.175 11.512ZM105.54 11.5755C105.54 17.066 101.783 21.5093 96.5431 21.5093C91.3028 21.5093 87.4855 17.0024 87.4855 11.512V11.4485C87.4855 5.95917 91.2416 1.51581 96.4829 1.51581C101.723 1.51581 105.539 6.0227 105.539 11.512L105.54 11.5755ZM73.5021 2.06999H80.893V0.41838H64.5364V2.0689H71.9273V22.598H73.5032L73.5021 2.06999ZM56.1528 22.598H58.1316L49.1806 11.0159L48.1469 12.0958L56.1528 22.5991V22.598ZM43.9804 14.548L57.2793 0.427142H55.271L43.9804 12.2447V0.427142H42.411V22.6078H43.9804V14.5469V14.548ZM29.6922 22.6089H31.2671V0.421665H29.6922V22.6089ZM11.4769 22.6035L20.7275 0.422761H19.062L10.8114 20.6671L2.58819 0.422761H0.833008L10.0836 22.6035H11.4769Z" clip-rule="evenodd" fill-rule="evenodd"></path>
</svg>
